<?xml version="1.0" encoding="UTF-8"?>
<svg id="Camada_1" xmlns="http://www.w3.org/2000/svg" version="1.1" viewBox="0 0 898.7 1000.7">
  <!-- Generator: Adobe Illustrator 29.3.1, SVG Export Plug-In . SVG Version: 2.1.0 Build 151)  -->
  <defs>
    <style>
      .st0 {
        fill: #fff;
      }
    </style>
  </defs>
  <path class="st0" d="M833.5,467.4c-.5-6.2-5.6-10.9-11.8-10.9h-111.5c-5.7,0-10.9-2.9-14-7.6-3.1-4.8-3.5-10.7-1.1-15.9l67.6-146.8c1.8-3.9,1.3-8.5-1.2-11.9-24-33.1-53-62-86-86-3.5-2.5-8-3-11.9-1.2l-146.9,67.6c-5.2,2.4-11.1,2-15.9-1.1-4.8-3.1-7.6-8.3-7.6-14v-111.5c0-6.2-4.7-11.3-10.9-11.8-21.6-1.9-44.2-1.9-65.8,0-6.2.5-10.9,5.6-10.9,11.8v111.5c0,5.7-2.8,10.9-7.6,14-4.8,3.1-10.7,3.5-15.9,1.1l-146.8-67.6c-3.9-1.8-8.5-1.3-11.9,1.2-33.2,24.1-62.1,53-86,86-2.5,3.5-3,8-1.2,11.9l67.5,146.8c2.4,5.2,2,11.1-1.1,15.9-3.1,4.8-8.3,7.6-14,7.6h-111.5c-6.2,0-11.3,4.7-11.8,10.9-.9,10.8-1.4,21.9-1.4,32.9s.5,22.1,1.4,32.9c.5,6.2,5.6,10.9,11.8,10.9h111.5c5.7,0,10.9,2.9,14,7.6,3.1,4.8,3.5,10.7,1.1,15.9l-67.5,146.9c-1.8,3.9-1.3,8.5,1.2,11.9,23.9,33,52.9,61.9,86,86,3.5,2.5,8,3,11.9,1.2l146.8-67.6c2.2-1,4.6-1.5,7-1.5s6.2.9,8.9,2.6c4.8,3.1,7.6,8.3,7.6,14v111.5c0,6.2,4.7,11.3,10.9,11.8,21.6,1.9,44.2,1.9,65.8,0,6.2-.5,10.9-5.6,10.9-11.8v-111.5c0-5.7,2.9-10.9,7.6-14,4.8-3.1,10.7-3.5,15.9-1.1l146.9,67.6c3.9,1.8,8.5,1.3,11.9-1.2,33.1-24,62-53,86-86,2.5-3.5,3-8,1.2-11.9l-67.6-146.9c-2.4-5.2-2-11.1,1.1-15.9,3.1-4.8,8.3-7.6,14-7.6h111.5c6.2,0,11.3-4.7,11.8-10.9.9-10.8,1.4-21.8,1.4-32.9s-.5-22.1-1.4-32.9ZM583,545.9c3,12.9,7.3,25.5,12.8,37.5h0s35.2,76.6,35.2,76.6c2.9,6.4,1.6,13.7-3.4,18.7-5,5-12.3,6.3-18.7,3.3l-76.5-35.2c-12-5.5-24.6-9.9-37.5-12.9-29.8-7-61.3-7-91.2,0-13,3.1-25.5,7.4-37.4,12.9l-76.6,35.3c-2.3,1-4.6,1.5-7,1.5-4.3,0-8.5-1.7-11.7-4.9-5-5-6.3-12.3-3.3-18.7l35.2-76.6c5.5-12,9.9-24.6,12.9-37.5,7.1-29.7,7.1-61.2,0-91.2-3-12.6-7.3-25.2-12.9-37.5l-35.2-76.6c-2.9-6.4-1.6-13.7,3.3-18.7,5-5,12.3-6.3,18.7-3.3l76.6,35.3c12,5.6,24.6,9.9,37.4,12.8,29.8,7.1,61.3,7.1,91.2,0,12.8-3,25.4-7.3,37.5-12.8l76.5-35.2c6.4-2.9,13.7-1.6,18.7,3.3,5,5,6.3,12.3,3.4,18.7l-35.2,76.6c-5.6,12.3-10,24.9-12.8,37.4-7.1,29.8-7.1,61.3,0,91.2Z"/>
</svg>